<svg xmlns="http://www.w3.org/2000/svg" xmlns:xlink="http://www.w3.org/1999/xlink" width="92" height="92" viewBox="0 0 92 92">
  <defs>
    <clipPath id="clip-path">
      <rect id="Rectangle_10968" data-name="Rectangle 10968" width="39.928" height="40" fill="#e1a518"/>
    </clipPath>
  </defs>
  <g id="Group_27478" data-name="Group 27478" transform="translate(-1280 -962)">
    <circle id="Ellipse_22" data-name="Ellipse 22" cx="46" cy="46" r="46" transform="translate(1280 962)" fill="#fef7e4"/>
    <g id="Group_27349" data-name="Group 27349" transform="translate(1306 988)">
      <g id="Group_27348" data-name="Group 27348" clip-path="url(#clip-path)">
        <path id="Path_30267" data-name="Path 30267" d="M9.13,32.513,1.7,39.945.054,38.3l7.409-7.422-1.68-1.722L2.268,32.675.62,31.023l3.51-3.516L2.688,26.069,4.856,21.6,0,16.736l5.285-5.3,6.6-1.868,2.243,2.246,3.5-3.463A31.483,31.483,0,0,1,39.913.015,31.666,31.666,0,0,1,31.39,22.58l-3.254,3.271L30.385,28.1l-1.872,6.6L23.221,40l-4.844-4.86L13.92,37.3l-1.45-1.435L8.963,39.381,7.315,37.73l3.509-3.514Zm9.508-.459,11.088-11.12A29.4,29.4,0,0,0,37.56,2.377a29.37,29.37,0,0,0-18.526,7.844L7.932,21.329ZM6.281,19.678l6.2-6.211-1.272-1.275L6.5,13.533,3.328,16.719ZM14.4,34.486l2.212-1.112-10-10.013-1.1,2.23Zm12.062-1.058,1.3-4.659L26.482,27.5l-6.2,6.207,2.963,2.96Z" transform="translate(0 0)" fill="#e1a518"/>
        <path id="Path_30268" data-name="Path 30268" d="M91.158,45.32a5.333,5.333,0,1,1-5.333-5.343,5.338,5.338,0,0,1,5.333,5.343m-8.338-.1a3,3,0,1,0,5.965-.292,2.942,2.942,0,0,0-3.5-2.532,4.165,4.165,0,0,0-2.467,2.824" transform="translate(-60.931 -30.262)" fill="#e1a518"/>
      </g>
    </g>
  </g>
</svg>
